<svg width="43" height="37" viewBox="0 0 43 37" fill="none" xmlns="http://www.w3.org/2000/svg">
<path d="M29.0724 11.4525C28.8387 11.4525 28.6146 11.3597 28.4494 11.1945C28.2842 11.0293 28.1914 10.8052 28.1914 10.5716V3.52394C28.1913 3.37376 28.2297 3.22605 28.3027 3.09485C28.3758 2.96365 28.4812 2.85331 28.6089 2.77431C28.7367 2.69531 28.8825 2.65028 29.0325 2.64348C29.1825 2.63669 29.3318 2.66836 29.4661 2.73549L36.5138 6.2593C36.6604 6.33236 36.7837 6.44485 36.8699 6.58413C36.9561 6.7234 37.0018 6.88395 37.0018 7.04775C37.0018 7.21155 36.9561 7.3721 36.8699 7.51137C36.7837 7.65065 36.6604 7.76314 36.5138 7.8362L29.4661 11.36C29.3438 11.421 29.209 11.4526 29.0724 11.4525ZM29.9533 4.94932V9.14618L34.1502 7.04775L29.9533 4.94932Z" fill="#0393AA"/>
<path d="M39.6425 17.619H24.6663C23.9654 17.619 23.2931 17.3406 22.7975 16.845C22.3019 16.3493 22.0234 15.6771 22.0234 14.9762V2.64286C22.0234 1.94193 22.3019 1.26971 22.7975 0.774075C23.2931 0.278443 23.9654 0 24.6663 0H39.6425C40.3434 0 41.0156 0.278443 41.5113 0.774075C42.0069 1.26971 42.2853 1.94193 42.2853 2.64286V14.9762C42.2853 15.6771 42.0069 16.3493 41.5113 16.845C41.0156 17.3406 40.3434 17.619 39.6425 17.619ZM24.6663 1.7619C24.4327 1.7619 24.2086 1.85472 24.0434 2.01993C23.8782 2.18514 23.7853 2.40921 23.7853 2.64286V14.9762C23.7853 15.2098 23.8782 15.4339 24.0434 15.5991C24.2086 15.7643 24.4327 15.8571 24.6663 15.8571H39.6425C39.8761 15.8571 40.1002 15.7643 40.2654 15.5991C40.4306 15.4339 40.5234 15.2098 40.5234 14.9762V2.64286C40.5234 2.40921 40.4306 2.18514 40.2654 2.01993C40.1002 1.85472 39.8761 1.7619 39.6425 1.7619H24.6663Z" fill="#0393AA"/>
<path d="M37.8821 12.3341H36.1202C36.1202 12.1004 36.0274 11.8764 35.8621 11.7111C35.6969 11.5459 35.4729 11.4531 35.2392 11.4531C35.0056 11.4531 34.7815 11.5459 34.6163 11.7111C34.4511 11.8764 34.3583 12.1004 34.3583 12.3341H27.3106C27.077 12.3341 26.8529 12.4269 26.6877 12.5921C26.5225 12.7573 26.4297 12.9814 26.4297 13.215C26.4297 13.4487 26.5225 13.6727 26.6877 13.838C26.8529 14.0032 27.077 14.096 27.3106 14.096H34.3583C34.3583 14.3296 34.4511 14.5537 34.6163 14.7189C34.7815 14.8841 35.0056 14.9769 35.2392 14.9769C35.4729 14.9769 35.6969 14.8841 35.8621 14.7189C36.0274 14.5537 36.1202 14.3296 36.1202 14.096H37.8821C38.1157 14.096 38.3398 14.0032 38.505 13.838C38.6702 13.6727 38.763 13.4487 38.763 13.215C38.763 12.9814 38.6702 12.7573 38.505 12.5921C38.3398 12.4269 38.1157 12.3341 37.8821 12.3341Z" fill="#0393AA"/>
<path d="M32.596 28.19C32.0733 28.19 31.5623 28.035 31.1277 27.7446C30.6931 27.4542 30.3543 27.0414 30.1543 26.5585C29.9543 26.0756 29.9019 25.5442 30.0039 25.0316C30.1059 24.5189 30.3576 24.048 30.7272 23.6784C31.0968 23.3088 31.5677 23.0571 32.0804 22.9551C32.5931 22.8531 33.1244 22.9054 33.6074 23.1055C34.0903 23.3055 34.503 23.6442 34.7934 24.0789C35.0838 24.5135 35.2388 25.0244 35.2388 25.5472C35.2388 26.2481 34.9604 26.9203 34.4648 27.4159C33.9691 27.9116 33.2969 28.19 32.596 28.19ZM32.596 24.6662C32.4217 24.6662 32.2514 24.7179 32.1066 24.8147C31.9617 24.9115 31.8488 25.0491 31.7821 25.21C31.7154 25.371 31.698 25.5481 31.732 25.719C31.7659 25.8899 31.8499 26.0469 31.9731 26.1701C32.0963 26.2933 32.2532 26.3772 32.4241 26.4112C32.595 26.4452 32.7721 26.4277 32.9331 26.361C33.0941 26.2944 33.2317 26.1815 33.3285 26.0366C33.4253 25.8917 33.4769 25.7214 33.4769 25.5472C33.4769 25.3135 33.3841 25.0894 33.2189 24.9242C33.0537 24.759 32.8296 24.6662 32.596 24.6662Z" fill="#0393AA"/>
<path d="M10.5729 0.880859C8.93799 0.882725 7.37056 1.53302 6.21449 2.68909C5.05842 3.84516 4.40812 5.4126 4.40625 7.04753V8.80943C4.40625 10.4449 5.05595 12.0134 6.21243 13.1699C7.3689 14.3264 8.93742 14.9761 10.5729 14.9761C12.2084 14.9761 13.7769 14.3264 14.9334 13.1699C16.0899 12.0134 16.7396 10.4449 16.7396 8.80943V7.04753C16.7377 5.4126 16.0874 3.84516 14.9313 2.68909C13.7753 1.53302 12.2078 0.882725 10.5729 0.880859ZM14.3408 4.80022C13.3486 5.31009 12.1995 5.4232 11.127 5.11657C10.0545 4.80994 9.13884 4.10657 8.56611 3.14931C9.18451 2.82137 9.87296 2.6476 10.5729 2.64276C11.334 2.64519 12.0815 2.84531 12.742 3.22351C13.4025 3.60172 13.9534 4.14503 14.3408 4.80022ZM14.9777 8.80943C14.9777 9.97765 14.5136 11.098 13.6876 11.9241C12.8615 12.7501 11.7411 13.2142 10.5729 13.2142C9.4047 13.2142 8.28433 12.7501 7.45828 11.9241C6.63223 11.098 6.16815 9.97765 6.16815 8.80943V7.04753C6.17254 6.02585 6.53545 5.03814 7.19358 4.25667C7.99538 5.49791 9.22085 6.40556 10.6419 6.8107C12.063 7.21584 13.5829 7.09087 14.9187 6.45905C14.9515 6.65367 14.9712 6.85027 14.9777 7.04753V8.80943Z" fill="#0393AA"/>
<path d="M41.4048 19.3812H23.7857C23.5521 19.3812 23.328 19.474 23.1628 19.6393C22.9976 19.8045 22.9048 20.0285 22.9048 20.2622V28.1908H21.1429V22.0241C21.141 20.3892 20.4907 18.8217 19.3346 17.6657C18.1786 16.5096 16.6111 15.8593 14.9762 15.8574H6.16667C4.53174 15.8593 2.96431 16.5096 1.80824 17.6657C0.652165 18.8217 0.00186529 20.3892 0 22.0241V32.5955C0 32.8292 0.0928145 33.0532 0.258025 33.2184C0.423236 33.3837 0.647309 33.4765 0.880952 33.4765H41.4048C41.6384 33.4765 41.8625 33.3837 42.0277 33.2184C42.1929 33.0532 42.2857 32.8292 42.2857 32.5955V20.2622C42.2857 20.0285 42.1929 19.8045 42.0277 19.6393C41.8625 19.474 41.6384 19.3812 41.4048 19.3812ZM13.0522 17.6193C12.8728 18.1343 12.5376 18.5806 12.0931 18.8965C11.6485 19.2124 11.1167 19.3821 10.5714 19.3821C10.0261 19.3821 9.49432 19.2124 9.0498 18.8965C8.60528 18.5806 8.27007 18.1343 8.09067 17.6193H13.0522ZM4.40476 24.6669C4.17112 24.6669 3.94705 24.7598 3.78183 24.925C3.61662 25.0902 3.52381 25.3143 3.52381 25.5479V31.7146H1.7619V22.0241C1.7633 20.8563 2.22782 19.7367 3.05357 18.911C3.87932 18.0852 4.99888 17.6207 6.16667 17.6193H6.25476C6.45695 18.6151 6.99717 19.5103 7.78387 20.1533C8.57057 20.7963 9.55538 21.1476 10.5714 21.1476C11.5875 21.1476 12.5723 20.7963 13.359 20.1533C14.1457 19.5103 14.6859 18.6151 14.8881 17.6193H14.9762C16.144 17.6207 17.2635 18.0852 18.0893 18.911C18.915 19.7367 19.3796 20.8563 19.381 22.0241V28.1908H17.619V25.5479C17.619 25.3143 17.5262 25.0902 17.361 24.925C17.1958 24.7598 16.9717 24.6669 16.7381 24.6669C16.5045 24.6669 16.2804 24.7598 16.1152 24.925C15.95 25.0902 15.8571 25.3143 15.8571 25.5479V29.0717C15.8604 30.028 16.178 30.9566 16.761 31.7146H5.28571V25.5479C5.28571 25.3143 5.1929 25.0902 5.02769 24.925C4.86248 24.7598 4.6384 24.6669 4.40476 24.6669ZM22.9048 31.7146H20.2619C19.7155 31.7139 19.1826 31.5442 18.7364 31.2288C18.2902 30.9133 17.9526 30.4676 17.7697 29.9527H22.9048V31.7146ZM40.5238 31.7146H24.6667V21.1431H40.5238V31.7146Z" fill="#0393AA"/>
<path d="M41.4048 37.0006H0.880952C0.647309 37.0006 0.423236 36.9077 0.258025 36.7425C0.0928145 36.5773 0 36.3532 0 36.1196V32.5958C0 32.3622 0.0928145 32.1381 0.258025 31.9729C0.423236 31.8077 0.647309 31.7148 0.880952 31.7148H41.4048C41.6384 31.7148 41.8625 31.8077 42.0277 31.9729C42.1929 32.1381 42.2857 32.3622 42.2857 32.5958V36.1196C42.2857 36.3532 42.1929 36.5773 42.0277 36.7425C41.8625 36.9077 41.6384 37.0006 41.4048 37.0006ZM1.7619 35.2387H40.5238V33.4767H1.7619V35.2387Z" fill="#0393AA"/>
</svg>
